HIERARCHY
ROOT joint_Root
{
  OFFSET 0 0 0
  CHANNELS 6 Xposition Yposition Zposition Zrotation Xrotation Yrotation
  JOINT Hips
  {
    OFFSET 0.0408292 93.9915 0.0639531
    CHANNELS 6 Xposition Yposition Zposition Zrotation Xrotation Yrotation
    JOINT Spine
    {
      OFFSET 15.7357 0 0
      CHANNELS 6 Xposition Yposition Zposition Zrotation Xrotation Yrotation
      JOINT Chest
      {
        OFFSET 8.98455 -0.406207 0
        CHANNELS 6 Xposition Yposition Zposition Zrotation Xrotation Yrotation
        JOINT Neck
        {
          OFFSET 16.3773 0 0
          CHANNELS 6 Xposition Yposition Zposition Zrotation Xrotation Yrotation
          JOINT Head
          {
            OFFSET 6.45672 0 0
            CHANNELS 6 Xposition Yposition Zposition Zrotation Xrotation Yrotation
            End Site
            {
              OFFSET 10 0 0
            }
          }
        }
        JOINT Shoulder_L
        {
          OFFSET 12.9942 -0.242716 4.98039
          CHANNELS 6 Xposition Yposition Zposition Zrotation Xrotation Yrotation
          JOINT UpperArm_L
          {
            OFFSET 5.34809 0 0
            CHANNELS 6 Xposition Yposition Zposition Zrotation Xrotation Yrotation
            JOINT LowerArm_L
            {
              OFFSET 24.3286 1.87007e-05 0
              CHANNELS 6 Xposition Yposition Zposition Zrotation Xrotation Yrotation
              JOINT Hand_L
              {
                OFFSET 22.2916 0 0
                CHANNELS 6 Xposition Yposition Zposition Zrotation Xrotation Yrotation
                End Site
                {
                  OFFSET 5 0 0
                }
              }
            }
          }
        }
        JOINT Shoulder_R
        {
          OFFSET 12.9945 -0.242716 -4.98039
          CHANNELS 6 Xposition Yposition Zposition Zrotation Xrotation Yrotation
          JOINT UpperArm_R
          {
            OFFSET -5.34813 0 0
            CHANNELS 6 Xposition Yposition Zposition Zrotation Xrotation Yrotation
            JOINT LowerArm_R
            {
              OFFSET -24.3289 0.000322201 0
              CHANNELS 6 Xposition Yposition Zposition Zrotation Xrotation Yrotation
              JOINT Hand_R
              {
                OFFSET -22.2915 -0.000108084 0
                CHANNELS 6 Xposition Yposition Zposition Zrotation Xrotation Yrotation
                End Site
                {
                  OFFSET -5 0 0
                }
              }
            }
          }
        }
      }
    }
    JOINT UpperLeg_L
    {
      OFFSET -2.19248 -6.46944 0
      CHANNELS 6 Xposition Yposition Zposition Zrotation Xrotation Yrotation
      JOINT LowerLeg_L
      {
        OFFSET 39.0811 0 -1.23785e-05
        CHANNELS 6 Xposition Yposition Zposition Zrotation Xrotation Yrotation
        JOINT Foot_L
        {
          OFFSET 40.9854 0 -1.26872e-05
          CHANNELS 6 Xposition Yposition Zposition Zrotation Xrotation Yrotation
          JOINT Toes_L
          {
            OFFSET 11.7543 0 0
            CHANNELS 6 Xposition Yposition Zposition Zrotation Xrotation Yrotation
            End Site
            {
              OFFSET 5 0 0
            }
          }
        }
      }
    }
    JOINT UpperLeg_R
    {
      OFFSET -2.19251 6.46944 0
      CHANNELS 6 Xposition Yposition Zposition Zrotation Xrotation Yrotation
      JOINT LowerLeg_R
      {
        OFFSET -39.0811 0 0
        CHANNELS 6 Xposition Yposition Zposition Zrotation Xrotation Yrotation
        JOINT Foot_R
        {
          OFFSET -40.9854 0 0
          CHANNELS 6 Xposition Yposition Zposition Zrotation Xrotation Yrotation
          JOINT Toes_R
          {
            OFFSET -11.7543 0 0
            CHANNELS 6 Xposition Yposition Zposition Zrotation Xrotation Yrotation
            End Site
            {
              OFFSET -5 0 0
            }
          }
        }
      }
    }
  }
}
MOTION
Frames:	9
Frame Time:	0.0333333
0 0 0 0 0 -0 0.158877 82.5403 -5.34955 91.5796 2.66373 -19.8975 15.7357 5.1072e-06 -5.51765e-07 85.7428 66.9558 -89.8718 8.98455 -0.406207 -4.3199e-07 5.15958 -0.432025 1.05228 16.3773 -1.3905e-06 -6.99897e-07 -11.5545 -0.194558 3.6216 6.45672 -1.25837e-06 -1.02172e-07 -22.0946 1.58182 -1.07795 12.9942 -0.242716 4.98039 -89.1518 10.0415 -91.4518 5.34809 -7.22636e-06 -6.2814e-07 -74.9308 -4.93609 -36.8186 24.3286 1.87007e-05 4.90208e-06 -4.48103e-06 5.35515e-06 -79.666 22.2916 -9.88446e-07 4.63217e-06 20.171 34.8842 -12.7721 12.9945 -0.242716 -4.98039 90.3521 11.446 -88.4186 -5.34813 -1.25947e-06 -3.79883e-06 -65.0037 4.07429 12.7245 -24.3289 0.000322201 -8.65921e-06 0.000565004 -0.000454622 -53.9759 -22.2915 -0.000108084 -4.47941e-06 22.2958 -1.03889 -20.4129 -2.19248 -6.46944 -1.22534e-07 176.043 1.19116 -37.4372 39.0811 -6.73843e-06 -1.23785e-05 1.98228e-13 -4.87472e-06 58.674 40.9854 -6.48686e-06 -1.26872e-05 -0.396533 2.87944 -84.4517 11.7543 -2.30145e-07 3.05095e-06 -0.513479 0.79903 -22.3699 -2.19251 6.46944 -1.45247e-06 -178.471 3.93267 126.193 -39.0811 0 0 1.80142e-06 -7.19236e-06 118.122 -40.9854 7.72618e-06 5.99936e-06 -4.8301 8.04007 -44.9437 -11.7543 -5.6619e-06 -5.58687e-06 1.03016 0.745488 -24.9737 
0 0 14.359 0 0 -0 0.234612 82.9469 -6.65068 91.0812 3.53199 -20.449 15.7357 5.1072e-06 -5.51765e-07 77.4451 65.3971 -80.5843 8.98455 -0.406207 -4.3199e-07 5.63774 -3.96708 3.51084 16.3773 -1.3905e-06 -6.99897e-07 -12.6499 2.03557 1.93109 6.45672 -1.25837e-06 -1.02172e-07 -23.9034 3.63362 -0.63015 12.9942 -0.242716 4.98039 -89.3389 5.81498 -91.4286 5.34809 -7.22636e-06 -6.2814e-07 -80.0503 -4.45091 -56.3858 24.3286 1.87007e-05 4.90208e-06 1.16184e-06 1.88283e-06 -87.2949 22.2916 -9.88446e-07 4.63217e-06 18.6694 35.5614 -12.3017 12.9945 -0.242716 -4.98039 90.3267 9.49996 -88.4605 -5.34813 -1.25947e-06 -3.79883e-06 -62.9991 8.57028 28.4416 -24.3289 0.000322201 -8.65921e-06 0.00047183 -0.000453159 -57.7551 -22.2915 -0.000108084 -4.47941e-06 24.8959 -2.46558 -20.8483 -2.19248 -6.46944 -1.22534e-07 177.167 -1.63385 -24.8615 39.0811 -6.73843e-06 -1.23785e-05 2.16575e-13 -3.92488e-06 49.9431 40.9854 -6.48686e-06 -1.26872e-05 1.07794 5.52422 -81.5773 11.7543 -2.30145e-07 3.05095e-06 -0.513472 0.799027 -29.1392 -2.19251 6.46944 -1.45247e-06 179.437 -0.91032 109.781 -39.0811 8.88178e-16 0 1.93022e-06 -7.42831e-06 119.132 -40.9854 7.72618e-06 5.99936e-06 -3.04097 4.04777 -50.4909 -11.7543 -5.6619e-06 -5.58687e-06 1.03016 0.74549 -28.1406 
0 0 28.718 0 0 -0 0.592739 84.8357 -6.47462 90.2558 2.88259 -20.6742 15.7357 5.1072e-06 -5.51765e-07 69.4294 64.2698 -70.9056 8.98455 -0.406207 -4.3199e-07 5.66008 -7.87483 5.45086 16.3773 -1.3905e-06 -6.99897e-07 -12.7567 5.12756 -0.47218 6.45672 -1.25837e-06 -1.02172e-07 -23.887 6.01922 0.168182 12.9942 -0.242716 4.98039 -89.5256 4.50661 -90.4083 5.34809 -7.22636e-06 -6.2814e-07 -82.4586 -7.07067 -68.1596 24.3286 1.87007e-05 4.90208e-06 1.49932e-05 -4.92367e-06 -96.1746 22.2916 -9.88446e-07 4.63217e-06 15.9728 34.9414 -11.3824 12.9945 -0.242716 -4.98039 90.4271 6.32361 -89.5693 -5.34813 -1.25947e-06 -3.79883e-06 -62.7979 12.402 39.9757 -24.3289 0.000322201 -8.65921e-06 0.000442009 -0.000438777 -57.4395 -22.2915 -0.000108084 -4.47941e-06 26.8217 -2.72454 -21.3661 -2.19248 -6.46944 -1.22534e-07 178.483 -5.99005 -6.39347 39.0811 -6.73843e-06 -1.23785e-05 6.42063e-07 -1.20738e-06 28.0033 40.9854 -6.48686e-06 -1.26872e-05 3.60065 7.53206 -64.7041 11.7543 -2.30145e-07 3.05095e-06 -0.513471 0.799031 -41.0955 -2.19251 6.46944 -1.45247e-06 176.127 -5.09864 101.304 -39.0811 1.77636e-15 0 1.6127e-05 -5.07365e-06 109.421 -40.9854 7.72618e-06 5.99936e-06 -2.66352 -0.524256 -55.3519 -11.7543 -5.6619e-06 -5.58687e-06 1.03016 0.745483 -28.5339 
0 0 43.0769 0 0 -0 1.28624 86.4366 -5.854 89.3905 0.894766 -21.1752 15.7357 5.1072e-06 -5.51765e-07 63.5569 64.22 -62.9131 8.98455 -0.406207 -4.3199e-07 5.30265 -10.8661 6.19319 16.3773 -1.3905e-06 -6.99897e-07 -11.8948 7.93813 -2.81146 6.45672 -1.25837e-06 -1.02172e-07 -23.8792 8.0222 0.813569 12.9942 -0.242716 4.98039 -89.5309 5.89522 -90.0287 5.34809 -7.22636e-06 -6.2814e-07 -81.4823 -9.19803 -72.7494 24.3286 1.87007e-05 4.90208e-06 1.37374e-05 -1.17037e-05 -104.813 22.2916 -9.88446e-07 4.63217e-06 13.705 33.6634 -9.34765 12.9945 -0.242716 -4.98039 90.5151 3.85852 -90.8711 -5.34813 -1.25947e-06 -3.79883e-06 -62.8746 15.8539 46.9453 -24.3289 0.000322201 -8.65921e-06 0.000412574 -0.000420629 -56.0602 -22.2915 -0.000108084 -4.47941e-06 28.6227 -3.05511 -21.3602 -2.19248 -6.46944 -1.22534e-07 178.771 -9.73884 13.34 39.0811 -6.73843e-06 -1.23785e-05 3.51163e-11 -1.26298e-06 0.00159307 40.9854 -6.48686e-06 -1.26872e-05 4.62698 9.82697 -35.6359 11.7543 -2.30145e-07 3.05095e-06 -0.513463 0.799037 -48.1706 -2.19251 6.46944 -1.45247e-06 174.031 -7.36499 98.1366 -39.0811 3.55271e-15 0 1.55587e-05 -9.07098e-06 93.7873 -40.9854 7.72618e-06 5.99936e-06 -3.48673 -2.45249 -58.8478 -11.7543 -5.6619e-06 -5.58687e-06 1.03016 0.74548 -26.4606 
0 0 57.4359 0 0 -0 1.71319 87.2618 -5.44978 89.0064 -1.20309 -22.3271 15.7357 5.1072e-06 -5.51765e-07 58.4067 65.5947 -57.0764 8.98455 -0.406207 -4.3199e-07 5.249 -12.3983 6.1971 16.3773 -1.3905e-06 -6.99897e-07 -11.0764 9.6098 -4.12247 6.45672 -1.25837e-06 -1.02172e-07 -24.121 9.12358 1.18888 12.9942 -0.242716 4.98039 -89.408 7.93623 -90.4089 5.34809 -7.22636e-06 -6.2814e-07 -76.2643 -7.72576 -70.2957 24.3286 1.87007e-05 4.90208e-06 1.27133e-05 -1.50521e-05 -109.197 22.2916 -9.88446e-07 4.63217e-06 14.5644 33.0057 -8.04134 12.9945 -0.242716 -4.98039 90.5687 3.21971 -91.5619 -5.34813 -1.25947e-06 -3.79883e-06 -62.1628 16.9397 48.2088 -24.3289 0.000322201 -8.65921e-06 0.000405054 -0.00040246 -53.3533 -22.2915 -0.000108084 -4.47941e-06 29.493 -4.02843 -21.6541 -2.19248 -6.46944 -1.22534e-07 177.268 -10.5073 17.324 39.0811 -6.73843e-06 -1.23785e-05 8.00367e-16 -1.43125e-13 0.00209283 40.9854 -6.48686e-06 -1.26872e-05 0.705295 11.7129 -16.4755 11.7543 -2.30145e-07 3.05095e-06 -0.51346 0.799046 -36.6874 -2.19251 6.46944 -1.45247e-06 174.364 -7.31156 99.3745 -39.0811 0 1.42109e-14 -1.05036e-06 -7.93761e-06 74.924 -40.9854 7.72618e-06 5.99936e-06 -5.74563 0.18609 -61.3752 -11.7543 -5.6619e-06 -5.58687e-06 1.03016 0.745492 -23.5028 
0 0 71.7949 0 0 -0 1.67886 87.0012 -5.32558 89.2511 -2.68501 -22.4179 15.7357 5.1072e-06 -5.51765e-07 56.2835 66.6213 -56.2163 8.98455 -0.406207 -4.3199e-07 5.79038 -12.3014 6.19055 16.3773 -1.3905e-06 -6.99897e-07 -10.919 9.92477 -4.27305 6.45672 -1.25837e-06 -1.02172e-07 -24.5586 9.12135 1.17618 12.9942 -0.242716 4.98039 -89.238 9.18093 -91.1791 5.34809 -7.22636e-06 -6.2814e-07 -69.9829 -1.9848 -62.5514 24.3286 1.87007e-05 4.90208e-06 1.30367e-05 -1.40891e-05 -107.926 22.2916 -9.88446e-07 4.63217e-06 16.9917 34.5672 -7.31441 12.9945 -0.242716 -4.98039 90.5927 3.97241 -91.4869 -5.34813 -1.25947e-06 -3.79883e-06 -60.5524 13.5162 43.1086 -24.3289 0.000322201 -8.65921e-06 0.000409543 -0.00038327 -49.2591 -22.2915 -0.000108084 -4.47941e-06 28.202 -5.85634 -22.2075 -2.19248 -6.46944 -1.22533e-07 174.235 -8.44341 22.4191 39.0811 -6.73843e-06 -1.23785e-05 6.78222e-11 -1.34784e-06 0.00288309 40.9854 -6.48686e-06 -1.26872e-05 -7.35306 11.554 -3.69029 11.7543 -2.30145e-07 3.05095e-06 -0.513477 0.799033 -24.3062 -2.19251 6.46944 -1.45247e-06 176.203 -6.01323 105.287 -39.0811 1.77636e-15 -1.42109e-14 -3.78126e-16 0 58.2839 -40.9854 7.72618e-06 5.99936e-06 -8.18918 3.64809 -62.595 -11.7543 -5.6619e-06 -5.58687e-06 1.03017 0.745488 -20.1927 
0 0 86.1538 0 0 -0 1.42417 85.7517 -5.3811 89.6585 -3.32735 -20.951 15.7357 5.1072e-06 -5.51765e-07 59.4354 66.548 -60.7659 8.98455 -0.406207 -4.3199e-07 6.43411 -10.9122 5.89085 16.3773 -1.3905e-06 -6.99897e-07 -10.8415 9.29494 -4.05851 6.45672 -1.25837e-06 -1.02172e-07 -25.3456 8.1239 0.819226 12.9942 -0.242716 4.98039 -89.003 10.1863 -92.2964 5.34809 -7.22636e-06 -6.2814e-07 -66.8201 5.31888 -51.5144 24.3286 1.87007e-05 4.90208e-06 -6.30284e-07 -6.17027e-06 -101.665 22.2916 -9.88446e-07 4.63217e-06 20.2488 35.1131 -7.69554 12.9945 -0.242716 -4.98039 90.5514 5.80232 -90.5966 -5.34813 -1.25947e-06 -3.79883e-06 -60.3617 9.17949 34.4077 -24.3289 0.000322201 -8.65921e-06 0.00038771 -0.000373791 -47.3474 -22.2915 -0.000108084 -4.47941e-06 27.2221 -6.90979 -22.5781 -2.19248 -6.46944 -1.22534e-07 171.89 -7.19689 10.4875 39.0811 -6.73843e-06 -1.23785e-05 4.18085e-13 -2.6974e-06 34.5637 40.9854 -6.48686e-06 -1.26872e-05 -9.4981 6.52618 -12.7461 11.7543 -2.30145e-07 3.05095e-06 -0.513465 0.799025 -23.2919 -2.19251 6.46944 -1.45247e-06 177.525 -4.33949 113.106 -39.0811 0 0 4.67896e-16 -7.95139e-16 50.9697 -40.9854 7.72618e-06 5.99936e-06 -10.409 4.92502 -61.7952 -11.7543 -5.6619e-06 -5.58687e-06 1.03018 0.745482 -20.6947 
0 0 100.513 0 0 -0 1.1264 84.3552 -5.60427 89.4626 -2.82224 -19.3776 15.7357 5.1072e-06 -5.51765e-07 67.0892 66.1635 -67.1984 8.98455 -0.406207 -4.3199e-07 6.60408 -8.71237 4.25463 16.3773 -1.3905e-06 -6.99897e-07 -10.8264 7.88106 -3.31693 6.45672 -1.25837e-06 -1.02172e-07 -26.0769 6.88108 0.00684579 12.9942 -0.242716 4.98039 -88.7928 11.3011 -93.1236 5.34809 -7.22636e-06 -6.2814e-07 -67.6656 10.3849 -37.6859 24.3286 1.87007e-05 4.90208e-06 1.2723e-13 3.40606e-16 -92.7823 22.2916 -9.88446e-07 4.63217e-06 22.3945 33.1482 -8.32444 12.9945 -0.242716 -4.98039 90.3556 8.79078 -88.7195 -5.34813 -1.25947e-06 -3.79883e-06 -61.3839 7.35921 23.7833 -24.3289 0.000322201 -8.65921e-06 0.000414666 -0.00039924 -51.4414 -22.2915 -0.000108084 -4.47941e-06 27.6437 -6.37121 -21.9686 -2.19248 -6.46944 -1.22533e-07 173.712 -9.92482 -2.67448 39.0811 -6.73843e-06 -1.23785e-05 -4.52538e-13 -6.30902e-06 66.6212 40.9854 -6.48686e-06 -1.26872e-05 -8.82494 -0.0212828 -21.072 11.7543 -2.30145e-07 3.05095e-06 -0.513468 0.799029 -22.7814 -2.19251 6.46944 -1.45247e-06 177.759 -3.87812 120.399 -39.0811 -1.77636e-15 0 -0 0 52.5046 -40.9854 7.72618e-06 5.99936e-06 -12.7694 3.72025 -63.8331 -11.7543 -5.6619e-06 -5.58687e-06 1.03016 0.745499 -22.2505 
0 0 114.872 0 0 -0 0.584694 83.819 -6.85414 88.7625 -2.12335 -18.8547 15.7357 5.1072e-06 -5.51765e-07 76.2177 65.0655 -74.0422 8.98455 -0.406207 -4.3199e-07 7.19322 -6.34862 1.49006 16.3773 -1.3905e-06 -6.99897e-07 -11.7925 6.28072 -1.93324 6.45672 -1.25837e-06 -1.02172e-07 -26.8991 5.94519 -0.752688 12.9942 -0.242716 4.98039 -88.7483 11.6991 -93.2278 5.34809 -7.22636e-06 -6.2814e-07 -69.9834 8.69155 -22.3931 24.3286 1.87007e-05 4.90208e-06 -2.12497e-06 4.49347e-06 -85.936 22.2916 -9.88446e-07 4.63217e-06 22.531 32.1285 -9.46951 12.9945 -0.242716 -4.98039 90.0927 11.645 -87.0034 -5.34813 -1.25947e-06 -3.79883e-06 -62.8913 6.81135 7.88449 -24.3289 0.000322201 -8.65921e-06 0.00043547 -0.000455517 -60.8209 -22.2915 -0.000108084 -4.47941e-06 28.1157 -3.87568 -20.3336 -2.19248 -6.46944 -1.22534e-07 176.865 -14.2728 -19.5273 39.0811 -6.73843e-06 -1.23785e-05 1.94981e-07 -1.00558e-05 92.2217 40.9854 -6.48686e-06 -1.26872e-05 -3.26557 0.200115 -28.4483 11.7543 -2.30145e-07 3.05095e-06 -0.513469 0.799039 -22.0307 -2.19251 6.46944 -1.45247e-06 178.554 -5.50442 127.693 -39.0811 0 2.84217e-14 -6.97594e-16 0 55.2557 -40.9854 7.72618e-06 5.99936e-06 -12.3764 0.99698 -68.9978 -11.7543 -5.6619e-06 -5.58687e-06 1.03016 0.745485 -19.6326 
